{
  "source": "C:\\Users\\Peter\\Desktop\\stuff\\MIUN\\quantitative_research\\video_compression\\videos\\HEVC_CLASS_B\\Kimono_1920x1080_24.y4m",
  "output": "C:\\Users\\Peter\\Desktop\\stuff\\MIUN\\quantitative_research\\video_compression\\compressed_videos\\HEVC_CLASS_B\\av1\\2\\Kimono_1920x1080_24_av1.mkv",
  "codec": "av1",
  "ok": "Input #0, yuv4mpegpipe, from 'C:\\Users\\Peter\\Desktop\\stuff\\MIUN\\quantitative_research\\video_compression\\videos\\HEVC_CLASS_B\\Kimono_1920x1080_24.y4m':\n  Duration: 00:00:10.00, start: 0.000000, bitrate: 597198 kb/s\n  Stream #0:0: Video: rawvideo (I420 / 0x30323449), yuv420p(progressive), 1920x1080, 24 fps, 24 tbr, 24 tbn\n[out#0/matroska @ 0000020df2529080] Codec AVOption b:a (set bitrate (in bits/s)) has not been used for any stream. The most likely reason is either wrong type (e.g. a video option with no video streams) or that it is a private option of some decoder which was not actually used for any stream.\nStream mapping:\n  Stream #0:0 -> #0:0 (rawvideo (native) -> av1 (libsvtav1))\nPress [q] to stop, [?] for help\nSvt[info]: -------------------------------------------\nSvt[info]: SVT [version]:\tSVT-AV1 Encoder Lib v3.1.0-19-g6ecfe8ec\nSvt[info]: SVT [build]  :\tGCC 15.2.0\t 64 bit\nSvt[info]: LIB Build date: Aug 17 2025 11:37:13\nSvt[info]: -------------------------------------------\n[libsvtav1 @ 0000020df252c0c0] Specified chroma sample location center is unsupported on the AV1 bit stream level. Usage of a container that allows passing this information - such as Matroska - is recommended.\nSvt[info]: Level of Parallelism: 5\nSvt[info]: Number of PPCS 93\nSvt[info]: [asm level on system : up to avx2]\nSvt[info]: [asm level selected : up to avx2]\nSvt[info]: -------------------------------------------\nSvt[info]: SVT [config]: main profile\ttier (auto)\tlevel (auto)\nSvt[info]: SVT [config]: width / height / fps numerator / fps denominator \t\t: 1920 / 1080 / 24 / 1\nSvt[info]: SVT [config]: bit-depth / color format \t\t\t\t\t: 8 / YUV420\nSvt[info]: SVT [config]: preset / tune / pred struct \t\t\t\t\t: 4 / PSNR / random access\nSvt[info]: SVT [config]: gop size / mini-gop size / key-frame type \t\t\t: 161 / 16 / key frame\nSvt[info]: SVT [config]: BRC mode / target bitrate (kbps)\t\t\t\t: VBR / 2000 \nSvt[info]: SVT [config]: AQ mode / Variance Boost \t\t\t\t\t: 2 / 0\nSvt[info]: SVT [config]: sharpness / luminance-based QP bias \t\t\t\t: 0 / 0\nSvt[info]: SVT [config]: QP scale compress strength \t\t\t\t\t: 0\nSvt[info]: -------------------------------------------\nOutput #0, matroska, to 'C:\\Users\\Peter\\Desktop\\stuff\\MIUN\\quantitative_research\\video_compression\\compressed_videos\\HEVC_CLASS_B\\av1\\2\\Kimono_1920x1080_24_av1.mkv':\n  Metadata:\n    encoder         : Lavf62.3.100\n  Stream #0:0: Video: av1 (AV01 / 0x31305641), yuv420p(tv, progressive), 1920x1080, q=2-31, 2000 kb/s, 24 fps, 1k tbn\n    Metadata:\n      encoder         : Lavc62.11.100 libsvtav1\n    Side data:\n      cpb: bitrate max/min/avg: 0/0/2000000 buffer size: 2000000 vbv_delay: N/A\nframe=    0 fps=0.0 q=0.0 size=       0KiB time=N/A bitrate=N/A speed=N/A elapsed=0:00:04.64    \nframe=    0 fps=0.0 q=0.0 size=       0KiB time=N/A bitrate=N/A speed=N/A elapsed=0:00:05.35    \nframe=    0 fps=0.0 q=0.0 size=       0KiB time=N/A bitrate=N/A speed=N/A elapsed=0:00:06.11    \nframe=    0 fps=0.0 q=0.0 size=       0KiB time=N/A bitrate=N/A speed=N/A elapsed=0:00:06.78    \nframe=    0 fps=0.0 q=0.0 size=       0KiB time=N/A bitrate=N/A speed=N/A elapsed=0:00:07.44    \nframe=    0 fps=0.0 q=0.0 size=       0KiB time=N/A bitrate=N/A speed=N/A elapsed=0:00:08.09    \nframe=    0 fps=0.0 q=0.0 size=       0KiB time=N/A bitrate=N/A speed=N/A elapsed=0:00:08.85    \nframe=    0 fps=0.0 q=0.0 size=       0KiB time=N/A bitrate=N/A speed=N/A elapsed=0:00:09.78    \nframe=    0 fps=0.0 q=0.0 size=       0KiB time=N/A bitrate=N/A speed=N/A elapsed=0:00:10.65    \nframe=    0 fps=0.0 q=0.0 size=       0KiB time=N/A bitrate=N/A speed=N/A elapsed=0:00:11.55    \nframe=    0 fps=0.0 q=0.0 size=       0KiB time=N/A bitrate=N/A speed=N/A elapsed=0:00:12.40    \nframe=    1 fps=0.1 q=23.0 size=       1KiB time=00:00:00.00 bitrate=N/A speed=   0x elapsed=0:00:12.99    \nframe=    1 fps=0.1 q=23.0 size=       1KiB time=00:00:00.00 bitrate=N/A speed=   0x elapsed=0:00:13.54    \nframe=    1 fps=0.1 q=23.0 size=       1KiB time=00:00:00.00 bitrate=N/A speed=   0x elapsed=0:00:14.10    \nframe=    1 fps=0.1 q=23.0 size=       1KiB time=00:00:00.00 bitrate=N/A speed=   0x elapsed=0:00:14.74    \nframe=    1 fps=0.1 q=23.0 size=       1KiB time=00:00:00.00 bitrate=N/A speed=   0x elapsed=0:00:15.30    \nframe=    1 fps=0.1 q=23.0 size=       1KiB time=00:00:00.00 bitrate=N/A speed=   0x elapsed=0:00:15.98    \nframe=    1 fps=0.1 q=23.0 size=       1KiB time=00:00:00.00 bitrate=N/A speed=   0x elapsed=0:00:16.60    \nframe=    1 fps=0.1 q=23.0 size=       1KiB time=00:00:00.00 bitrate=N/A speed=   0x elapsed=0:00:17.12    \nframe=    2 fps=0.1 q=41.0 size=       1KiB time=00:00:00.04 bitrate= 107.9kbits/s speed=0.00236x elapsed=0:00:17.63    \nframe=    4 fps=0.2 q=41.0 size=       1KiB time=00:00:00.12 bitrate=  36.0kbits/s speed=0.00688x elapsed=0:00:18.16    \nframe=    4 fps=0.2 q=41.0 size=       1KiB time=00:00:00.12 bitrate=  36.0kbits/s speed=0.00669x elapsed=0:00:18.67    \nframe=    6 fps=0.3 q=41.0 size=       1KiB time=00:00:00.20 bitrate=  21.6kbits/s speed=0.0109x elapsed=0:00:19.18    \nframe=    7 fps=0.4 q=37.0 size=       1KiB time=00:00:00.25 bitrate=  18.0kbits/s speed=0.0127x elapsed=0:00:19.69    \nframe=    7 fps=0.3 q=37.0 size=       1KiB time=00:00:00.25 bitrate=  18.0kbits/s speed=0.0124x elapsed=0:00:20.21    \nframe=    8 fps=0.4 q=38.0 size=       1KiB time=00:00:00.29 bitrate=  15.4kbits/s speed=0.0141x elapsed=0:00:20.72    \nframe=    9 fps=0.4 q=34.0 size=       1KiB time=00:00:00.33 bitrate=  13.5kbits/s speed=0.0157x elapsed=0:00:21.24    \nframe=   10 fps=0.5 q=36.0 size=       1KiB time=00:00:00.37 bitrate=  12.0kbits/s speed=0.0172x elapsed=0:00:21.76    \nframe=   11 fps=0.5 q=36.0 size=       1KiB time=00:00:00.41 bitrate=  10.8kbits/s speed=0.0187x elapsed=0:00:22.28    \nframe=   11 fps=0.5 q=36.0 size=       1KiB time=00:00:00.41 bitrate=  10.8kbits/s speed=0.0183x elapsed=0:00:22.79    \nframe=   13 fps=0.6 q=34.0 size=       1KiB time=00:00:00.50 bitrate=   9.0kbits/s speed=0.0214x elapsed=0:00:23.31    \nframe=   15 fps=0.6 q=36.0 size=       1KiB time=00:00:00.58 bitrate=   7.7kbits/s speed=0.0245x elapsed=0:00:23.83    \nframe=   17 fps=0.7 q=26.0 size=       1KiB time=00:00:00.66 bitrate=   6.7kbits/s speed=0.0274x elapsed=0:00:24.35    \nframe=   18 fps=0.7 q=37.0 size=       1KiB time=00:00:00.70 bitrate=   6.3kbits/s speed=0.0285x elapsed=0:00:24.85    \nframe=   19 fps=0.7 q=36.0 size=       1KiB time=00:00:00.75 bitrate=   6.0kbits/s speed=0.0296x elapsed=0:00:25.37    \nframe=   20 fps=0.8 q=36.0 size=       1KiB time=00:00:00.79 bitrate=   5.7kbits/s speed=0.0306x elapsed=0:00:25.88    \nframe=   21 fps=0.8 q=35.0 size=       1KiB time=00:00:00.83 bitrate=   5.4kbits/s speed=0.0316x elapsed=0:00:26.40    \nframe=   22 fps=0.8 q=36.0 size=       1KiB time=00:00:00.87 bitrate=   5.1kbits/s speed=0.0325x elapsed=0:00:26.92    \nframe=   23 fps=0.8 q=36.0 size=       1KiB time=00:00:00.91 bitrate=   4.9kbits/s speed=0.0334x elapsed=0:00:27.43    \nframe=   23 fps=0.8 q=36.0 size=       1KiB time=00:00:00.91 bitrate=   4.9kbits/s speed=0.0328x elapsed=0:00:27.95    \nframe=   24 fps=0.8 q=37.0 size=       1KiB time=00:00:00.95 bitrate=   4.7kbits/s speed=0.0337x elapsed=0:00:28.47    \nframe=   26 fps=0.9 q=37.0 size=       1KiB time=00:00:01.04 bitrate=   4.3kbits/s speed=0.0359x elapsed=0:00:28.97    \nframe=   27 fps=0.9 q=36.0 size=       1KiB time=00:00:01.08 bitrate=   4.2kbits/s speed=0.0367x elapsed=0:00:29.50    \nframe=   28 fps=0.9 q=37.0 size=       1KiB time=00:00:01.12 bitrate=   4.0kbits/s speed=0.0375x elapsed=0:00:30.01    \nframe=   30 fps=1.0 q=38.0 size=       1KiB time=00:00:01.20 bitrate=   3.7kbits/s speed=0.0396x elapsed=0:00:30.53    \nframe=   32 fps=1.0 q=38.0 size=       1KiB time=00:00:01.29 bitrate=   3.5kbits/s speed=0.0416x elapsed=0:00:31.04    \nframe=   33 fps=1.0 q=24.0 size=       1KiB time=00:00:01.33 bitrate=   3.4kbits/s speed=0.0423x elapsed=0:00:31.55    \nframe=   34 fps=1.1 q=40.0 size=       1KiB time=00:00:01.37 bitrate=   3.3kbits/s speed=0.0429x elapsed=0:00:32.08    \nframe=   35 fps=1.1 q=39.0 size=       1KiB time=00:00:01.41 bitrate=   3.2kbits/s speed=0.0435x elapsed=0:00:32.59    \nframe=   36 fps=1.1 q=40.0 size=       1KiB time=00:00:01.45 bitrate=   3.1kbits/s speed=0.044x elapsed=0:00:33.10    \nframe=   38 fps=1.1 q=38.0 size=       1KiB time=00:00:01.54 bitrate=   2.9kbits/s speed=0.0458x elapsed=0:00:33.62    \nframe=   38 fps=1.1 q=38.0 size=       1KiB time=00:00:01.54 bitrate=   2.9kbits/s speed=0.0452x elapsed=0:00:34.14    \nframe=   38 fps=1.1 q=38.0 size=       1KiB time=00:00:01.54 bitrate=   2.9kbits/s speed=0.0445x elapsed=0:00:34.65    \nframe=   39 fps=1.1 q=35.0 size=       1KiB time=00:00:01.58 bitrate=   2.8kbits/s speed=0.045x elapsed=0:00:35.17    \nframe=   41 fps=1.1 q=33.0 size=       1KiB time=00:00:01.66 bitrate=   2.7kbits/s speed=0.0467x elapsed=0:00:35.69    \nframe=   43 fps=1.2 q=38.0 size=       1KiB time=00:00:01.75 bitrate=   2.6kbits/s speed=0.0483x elapsed=0:00:36.19    \nframe=   44 fps=1.2 q=40.0 size=       1KiB time=00:00:01.79 bitrate=   2.5kbits/s speed=0.0488x elapsed=0:00:36.71    \nframe=   45 fps=1.2 q=34.0 size=       1KiB time=00:00:01.83 bitrate=   2.5kbits/s speed=0.0492x elapsed=0:00:37.23    \nframe=   46 fps=1.2 q=39.0 size=       1KiB time=00:00:01.87 bitrate=   2.4kbits/s speed=0.0497x elapsed=0:00:37.75    \nframe=   49 fps=1.3 q=23.0 size=       1KiB time=00:00:02.00 bitrate=   2.2kbits/s speed=0.0523x elapsed=0:00:38.25    \nframe=   50 fps=1.3 q=40.0 size=       1KiB time=00:00:02.04 bitrate=   2.2kbits/s speed=0.0526x elapsed=0:00:38.77    \nframe=   51 fps=1.3 q=39.0 size=       1KiB time=00:00:02.08 bitrate=   2.2kbits/s speed=0.053x elapsed=0:00:39.31    \nframe=   53 fps=1.3 q=37.0 size=       1KiB time=00:00:02.12 bitrate=   2.1kbits/s speed=0.0533x elapsed=0:00:39.88    \nframe=   53 fps=1.3 q=37.0 size=       1KiB time=00:00:02.16 bitrate=   2.1kbits/s speed=0.0535x elapsed=0:00:40.49    \nframe=   54 fps=1.3 q=38.0 size=       1KiB time=00:00:02.20 bitrate=   2.0kbits/s speed=0.0538x elapsed=0:00:41.01    \nframe=   55 fps=1.3 q=35.0 size=       1KiB time=00:00:02.25 bitrate=   2.0kbits/s speed=0.0541x elapsed=0:00:41.55    \nframe=   55 fps=1.3 q=35.0 size=       1KiB time=00:00:02.25 bitrate=   2.0kbits/s speed=0.0535x elapsed=0:00:42.07    \nframe=   55 fps=1.3 q=35.0 size=       1KiB time=00:00:02.25 bitrate=   2.0kbits/s speed=0.0528x elapsed=0:00:42.59    \nframe=   56 fps=1.3 q=38.0 size=       1KiB time=00:00:02.29 bitrate=   2.0kbits/s speed=0.0532x elapsed=0:00:43.11    \nframe=   57 fps=1.3 q=33.0 size=       1KiB time=00:00:02.33 bitrate=   1.9kbits/s speed=0.0535x elapsed=0:00:43.61    \nframe=   58 fps=1.3 q=39.0 size=       1KiB time=00:00:02.37 bitrate=   1.9kbits/s speed=0.0538x elapsed=0:00:44.14    \nframe=   59 fps=1.3 q=37.0 size=       1KiB time=00:00:02.41 bitrate=   1.9kbits/s speed=0.0541x elapsed=0:00:44.65    \nframe=   59 fps=1.3 q=37.0 size=       1KiB time=00:00:02.41 bitrate=   1.9kbits/s speed=0.0535x elapsed=0:00:45.16    \nframe=   60 fps=1.3 q=37.0 size=       1KiB time=00:00:02.41 bitrate=   1.9kbits/s speed=0.0529x elapsed=0:00:45.68    \nframe=   61 fps=1.3 q=34.0 size=       1KiB time=00:00:02.50 bitrate=   1.8kbits/s speed=0.0541x elapsed=0:00:46.20    \nframe=   63 fps=1.3 q=37.0 size=       1KiB time=00:00:02.58 bitrate=   1.7kbits/s speed=0.0553x elapsed=0:00:46.71    \nframe=   64 fps=1.4 q=39.0 size=       1KiB time=00:00:02.62 bitrate=   1.7kbits/s speed=0.0556x elapsed=0:00:47.23    \nframe=   65 fps=1.4 q=24.0 size=       1KiB time=00:00:02.66 bitrate=   1.7kbits/s speed=0.0559x elapsed=0:00:47.74    \nframe=   65 fps=1.3 q=24.0 size=       1KiB time=00:00:02.66 bitrate=   1.7kbits/s speed=0.0553x elapsed=0:00:48.25    \nframe=   66 fps=1.4 q=40.0 size=       1KiB time=00:00:02.70 bitrate=   1.7kbits/s speed=0.0555x elapsed=0:00:48.77    \nframe=   67 fps=1.4 q=39.0 size=       1KiB time=00:00:02.75 bitrate=   1.6kbits/s speed=0.0558x elapsed=0:00:49.29    \nframe=   67 fps=1.3 q=39.0 size=       1KiB time=00:00:02.75 bitrate=   1.6kbits/s speed=0.0552x elapsed=0:00:49.80    \nframe=   67 fps=1.3 q=39.0 size=       1KiB time=00:00:02.75 bitrate=   1.6kbits/s speed=0.0546x elapsed=0:00:50.33    \nframe=   68 fps=1.3 q=40.0 size=       1KiB time=00:00:02.79 bitrate=   1.6kbits/s speed=0.0549x elapsed=0:00:50.85    \nframe=   69 fps=1.3 q=37.0 size=       1KiB time=00:00:02.83 bitrate=   1.6kbits/s speed=0.0552x elapsed=0:00:51.37    \nframe=   70 fps=1.3 q=38.0 size=       1KiB time=00:00:02.87 bitrate=   1.6kbits/s speed=0.0554x elapsed=0:00:51.88    \nframe=   70 fps=1.3 q=38.0 size=       1KiB time=00:00:02.87 bitrate=   1.6kbits/s speed=0.0549x elapsed=0:00:52.40    \nframe=   70 fps=1.3 q=38.0 size=       1KiB time=00:00:02.87 bitrate=   1.6kbits/s speed=0.0543x elapsed=0:00:52.91    \nframe=   71 fps=1.3 q=35.0 size=       1KiB time=00:00:02.91 bitrate=   1.5kbits/s speed=0.0546x elapsed=0:00:53.45    \nframe=   71 fps=1.3 q=35.0 size=       1KiB time=00:00:02.91 bitrate=   1.5kbits/s speed=0.054x elapsed=0:00:53.96    \nframe=   72 fps=1.3 q=38.0 size=       1KiB time=00:00:02.95 bitrate=   1.5kbits/s speed=0.0543x elapsed=0:00:54.47    \nframe=   73 fps=1.3 q=33.0 size=       1KiB time=00:00:03.00 bitrate=   1.5kbits/s speed=0.0545x elapsed=0:00:54.99    \nframe=   74 fps=1.3 q=39.0 size=       1KiB time=00:00:03.04 bitrate=   1.5kbits/s speed=0.0548x elapsed=0:00:55.51    \nframe=   75 fps=1.3 q=37.0 size=       1KiB time=00:00:03.08 bitrate=   1.5kbits/s speed=0.055x elapsed=0:00:56.05    \nframe=   75 fps=1.3 q=37.0 size=       1KiB time=00:00:03.08 bitrate=   1.5kbits/s speed=0.0545x elapsed=0:00:56.58    \nframe=   76 fps=1.3 q=40.0 size=       1KiB time=00:00:03.12 bitrate=   1.4kbits/s speed=0.0547x elapsed=0:00:57.10    \nframe=   77 fps=1.3 q=34.0 size=       1KiB time=00:00:03.16 bitrate=   1.4kbits/s speed=0.055x elapsed=0:00:57.62    \nframe=   79 fps=1.4 q=37.0 size=       1KiB time=00:00:03.25 bitrate=   1.4kbits/s speed=0.0559x elapsed=0:00:58.15    \nframe=   80 fps=1.4 q=41.0 size=       1KiB time=00:00:03.29 bitrate=   1.4kbits/s speed=0.0561x elapsed=0:00:58.66    \nframe=   81 fps=1.4 q=25.0 size=       1KiB time=00:00:03.33 bitrate=   1.3kbits/s speed=0.0563x elapsed=0:00:59.17    \nframe=   82 fps=1.4 q=40.0 size=       1KiB time=00:00:03.37 bitrate=   1.3kbits/s speed=0.0565x elapsed=0:00:59.70    \nframe=   82 fps=1.4 q=40.0 size=       1KiB time=00:00:03.37 bitrate=   1.3kbits/s speed=0.056x elapsed=0:01:00.23    \nframe=   83 fps=1.4 q=39.0 size=       1KiB time=00:00:03.41 bitrate=   1.3kbits/s speed=0.0562x elapsed=0:01:00.75    \nframe=   83 fps=1.4 q=39.0 size=       1KiB time=00:00:03.41 bitrate=   1.3kbits/s speed=0.0558x elapsed=0:01:01.28    \nframe=   84 fps=1.4 q=40.0 size=       1KiB time=00:00:03.45 bitrate=   1.3kbits/s speed=0.056x elapsed=0:01:01.80    \nframe=   85 fps=1.4 q=37.0 size=       1KiB time=00:00:03.50 bitrate=   1.3kbits/s speed=0.0562x elapsed=0:01:02.32    \nframe=   86 fps=1.4 q=41.0 size=       1KiB time=00:00:03.54 bitrate=   1.3kbits/s speed=0.0564x elapsed=0:01:02.84    \nframe=   86 fps=1.4 q=41.0 size=       1KiB time=00:00:03.54 bitrate=   1.3kbits/s speed=0.0559x elapsed=0:01:03.36    \nframe=   86 fps=1.3 q=41.0 size=       1KiB time=00:00:03.54 bitrate=   1.3kbits/s speed=0.0554x elapsed=0:01:03.89    \nframe=   87 fps=1.4 q=35.0 size=       1KiB time=00:00:03.58 bitrate=   1.3kbits/s speed=0.0556x elapsed=0:01:04.41    \nframe=   87 fps=1.3 q=35.0 size=       1KiB time=00:00:03.58 bitrate=   1.3kbits/s speed=0.0552x elapsed=0:01:04.93    \nframe=   88 fps=1.3 q=41.0 size=       1KiB time=00:00:03.62 bitrate=   1.2kbits/s speed=0.0554x elapsed=0:01:05.44    \nframe=   90 fps=1.4 q=41.0 size=       1KiB time=00:00:03.70 bitrate=   1.2kbits/s speed=0.0562x elapsed=0:01:05.96    \nframe=   90 fps=1.4 q=41.0 size=       1KiB time=00:00:03.70 bitrate=   1.2kbits/s speed=0.0558x elapsed=0:01:06.48    \nframe=   91 fps=1.4 q=38.0 size=       1KiB time=00:00:03.75 bitrate=   1.2kbits/s speed=0.056x elapsed=0:01:07.00    \nframe=   91 fps=1.3 q=38.0 size=       1KiB time=00:00:03.75 bitrate=   1.2kbits/s speed=0.0555x elapsed=0:01:07.50    \nframe=   92 fps=1.4 q=41.0 size=       1KiB time=00:00:03.79 bitrate=   1.2kbits/s speed=0.0557x elapsed=0:01:08.03    \nframe=   94 fps=1.4 q=41.0 size=       1KiB time=00:00:03.83 bitrate=   1.2kbits/s speed=0.0559x elapsed=0:01:08.55    \nframe=   95 fps=1.4 q=37.0 size=       1KiB time=00:00:03.91 bitrate=   1.1kbits/s speed=0.0567x elapsed=0:01:09.07    \nframe=   96 fps=1.4 q=41.0 size=       1KiB time=00:00:03.95 bitrate=   1.1kbits/s speed=0.0569x elapsed=0:01:09.59    \nframe=   97 fps=1.4 q=25.0 size=       1KiB time=00:00:04.00 bitrate=   1.1kbits/s speed=0.057x elapsed=0:01:10.11    \nframe=   98 fps=1.4 q=41.0 size=       1KiB time=00:00:04.04 bitrate=   1.1kbits/s speed=0.0572x elapsed=0:01:10.64    \nframe=   99 fps=1.4 q=39.0 size=       1KiB time=00:00:04.08 bitrate=   1.1kbits/s speed=0.0574x elapsed=0:01:11.16    \nframe=   99 fps=1.4 q=39.0 size=       1KiB time=00:00:04.08 bitrate=   1.1kbits/s speed=0.057x elapsed=0:01:11.67    \nframe=  100 fps=1.4 q=41.0 size=       1KiB time=00:00:04.12 bitrate=   1.1kbits/s speed=0.0571x elapsed=0:01:12.19    \nframe=  100 fps=1.4 q=41.0 size=       1KiB time=00:00:04.12 bitrate=   1.1kbits/s speed=0.0567x elapsed=0:01:12.72    \nframe=  101 fps=1.4 q=37.0 size=       1KiB time=00:00:04.16 bitrate=   1.1kbits/s speed=0.0569x elapsed=0:01:13.24    \nframe=  102 fps=1.4 q=41.0 size=       1KiB time=00:00:04.20 bitrate=   1.1kbits/s speed=0.0571x elapsed=0:01:13.76    \nframe=  102 fps=1.4 q=41.0 size=       1KiB time=00:00:04.20 bitrate=   1.1kbits/s speed=0.0566x elapsed=0:01:14.29    \nframe=  103 fps=1.4 q=36.0 size=       1KiB time=00:00:04.25 bitrate=   1.1kbits/s speed=0.0568x elapsed=0:01:14.81    \nframe=  103 fps=1.4 q=36.0 size=       1KiB time=00:00:04.25 bitrate=   1.1kbits/s speed=0.0564x elapsed=0:01:15.34    \nframe=  104 fps=1.4 q=41.0 size=       1KiB time=00:00:04.29 bitrate=   1.0kbits/s speed=0.0566x elapsed=0:01:15.85    \nframe=  105 fps=1.4 q=33.0 size=       1KiB time=00:00:04.33 bitrate=   1.0kbits/s speed=0.0567x elapsed=0:01:16.37    \nframe=  106 fps=1.4 q=41.0 size=       1KiB time=00:00:04.37 bitrate=   1.0kbits/s speed=0.0569x elapsed=0:01:16.90    \nframe=  107 fps=1.4 q=38.0 size=       1KiB time=00:00:04.41 bitrate=   1.0kbits/s speed=0.057x elapsed=0:01:17.42    \nframe=  107 fps=1.4 q=38.0 size=       1KiB time=00:00:04.41 bitrate=   1.0kbits/s speed=0.0567x elapsed=0:01:17.95    \nframe=  109 fps=1.4 q=35.0 size=       1KiB time=00:00:04.50 bitrate=   1.0kbits/s speed=0.0573x elapsed=0:01:18.46    \nframe=  110 fps=1.4 q=43.0 size=       1KiB time=00:00:04.54 bitrate=   1.0kbits/s speed=0.0575x elapsed=0:01:19.00    \nframe=  111 fps=1.4 q=39.0 size=       1KiB time=00:00:04.58 bitrate=   1.0kbits/s speed=0.0576x elapsed=0:01:19.52    \nframe=  111 fps=1.4 q=39.0 size=       1KiB time=00:00:04.58 bitrate=   1.0kbits/s speed=0.0573x elapsed=0:01:20.04    \nframe=  112 fps=1.4 q=43.0 size=       1KiB time=00:00:04.62 bitrate=   1.0kbits/s speed=0.0574x elapsed=0:01:20.56    \nframe=  113 fps=1.4 q=25.0 size=       1KiB time=00:00:04.66 bitrate=   1.0kbits/s speed=0.0575x elapsed=0:01:21.09    \nframe=  114 fps=1.4 q=43.0 size=       1KiB time=00:00:04.70 bitrate=   1.0kbits/s speed=0.0577x elapsed=0:01:21.61    \nframe=  116 fps=1.4 q=43.0 size=       1KiB time=00:00:04.79 bitrate=   0.9kbits/s speed=0.0583x elapsed=0:01:22.13    \nframe=  117 fps=1.4 q=39.0 size=       1KiB time=00:00:04.83 bitrate=   0.9kbits/s speed=0.0585x elapsed=0:01:22.65    \nframe=  118 fps=1.4 q=43.0 size=       1KiB time=00:00:04.87 bitrate=   0.9kbits/s speed=0.0586x elapsed=0:01:23.16    \nframe=  118 fps=1.4 q=43.0 size=       1KiB time=00:00:04.87 bitrate=   0.9kbits/s speed=0.0583x elapsed=0:01:23.68    \nframe=  119 fps=1.4 q=41.0 size=       1KiB time=00:00:04.91 bitrate=   0.9kbits/s speed=0.0584x elapsed=0:01:24.20    \nframe=  120 fps=1.4 q=43.0 size=       1KiB time=00:00:04.95 bitrate=   0.9kbits/s speed=0.0585x elapsed=0:01:24.72    \nframe=  122 fps=1.4 q=43.0 size=       1KiB time=00:00:05.04 bitrate=   0.9kbits/s speed=0.0591x elapsed=0:01:25.24    \nframe=  123 fps=1.4 q=39.0 size=    1280KiB time=00:00:05.08 bitrate=2062.8kbits/s speed=0.0593x elapsed=0:01:25.76    \nframe=  123 fps=1.4 q=39.0 size=    1280KiB time=00:00:05.08 bitrate=2062.8kbits/s speed=0.0589x elapsed=0:01:26.28    \nframe=  124 fps=1.4 q=42.0 size=    1280KiB time=00:00:05.12 bitrate=2046.0kbits/s speed=0.059x elapsed=0:01:26.80    \nframe=  126 fps=1.4 q=42.0 size=    1280KiB time=00:00:05.20 bitrate=2013.3kbits/s speed=0.0596x elapsed=0:01:27.32    \nframe=  127 fps=1.4 q=39.0 size=    1280KiB time=00:00:05.25 bitrate=1997.3kbits/s speed=0.0598x elapsed=0:01:27.84    \nframe=  127 fps=1.4 q=39.0 size=    1280KiB time=00:00:05.25 bitrate=1997.3kbits/s speed=0.0594x elapsed=0:01:28.36    \nframe=  128 fps=1.4 q=42.0 size=    1280KiB time=00:00:05.29 bitrate=1981.6kbits/s speed=0.0595x elapsed=0:01:28.90    \nframe=  129 fps=1.4 q=26.0 size=    1280KiB time=00:00:05.33 bitrate=1966.1kbits/s speed=0.0596x elapsed=0:01:29.45    \nframe=  130 fps=1.4 q=42.0 size=    1280KiB time=00:00:05.37 bitrate=1950.8kbits/s speed=0.0597x elapsed=0:01:30.02    \nframe=  131 fps=1.4 q=41.0 size=    1280KiB time=00:00:05.41 bitrate=1935.8kbits/s speed=0.0598x elapsed=0:01:30.59    \nframe=  131 fps=1.4 q=41.0 size=    1280KiB time=00:00:05.41 bitrate=1935.8kbits/s speed=0.0594x elapsed=0:01:31.19    \nframe=  132 fps=1.4 q=42.0 size=    1280KiB time=00:00:05.45 bitrate=1921.1kbits/s speed=0.0595x elapsed=0:01:31.77    \nframe=  133 fps=1.4 q=39.0 size=    1280KiB time=00:00:05.50 bitrate=1906.5kbits/s speed=0.0595x elapsed=0:01:32.37    \nframe=  134 fps=1.4 q=42.0 size=    1280KiB time=00:00:05.54 bitrate=1892.2kbits/s speed=0.0595x elapsed=0:01:33.08    \nframe=  137 fps=1.5 q=35.0 size=    1280KiB time=00:00:05.58 bitrate=1878.0kbits/s speed=0.0594x elapsed=0:01:34.07    \nframe=  139 fps=1.5 q=39.0 size=    1280KiB time=00:00:05.70 bitrate=1836.9kbits/s speed=0.06x elapsed=0:01:35.18    \nframe=  149 fps=1.5 q=39.0 size=    1280KiB time=00:00:06.08 bitrate=1723.7kbits/s speed=0.0631x elapsed=0:01:36.39    \nframe=  149 fps=1.5 q=39.0 size=    1280KiB time=00:00:06.16 bitrate=1700.4kbits/s speed=0.0635x elapsed=0:01:37.04    \nframe=  151 fps=1.5 q=41.0 size=    1280KiB time=00:00:06.25 bitrate=1677.7kbits/s speed=0.0641x elapsed=0:01:37.55    \nframe=  153 fps=1.6 q=36.0 size=    1280KiB time=00:00:06.33 bitrate=1655.6kbits/s speed=0.0646x elapsed=0:01:38.07    \nframe=  153 fps=1.6 q=36.0 size=    1280KiB time=00:00:06.33 bitrate=1655.6kbits/s speed=0.0642x elapsed=0:01:38.59    \nframe=  155 fps=1.6 q=41.0 size=    1280KiB time=00:00:06.41 bitrate=1634.1kbits/s speed=0.0647x elapsed=0:01:39.10    \nframe=  157 fps=1.6 q=39.0 size=    1280KiB time=00:00:06.50 bitrate=1613.2kbits/s speed=0.0652x elapsed=0:01:39.62    \nframe=  159 fps=1.6 q=41.0 size=    1280KiB time=00:00:06.58 bitrate=1592.8kbits/s speed=0.0657x elapsed=0:01:40.14    \nframe=  162 fps=1.6 q=15.0 size=    1280KiB time=00:00:06.70 bitrate=1563.1kbits/s speed=0.0666x elapsed=0:01:40.65    \nframe=  162 fps=1.6 q=15.0 size=    1280KiB time=00:00:06.70 bitrate=1563.1kbits/s speed=0.0663x elapsed=0:01:41.17    \nframe=  162 fps=1.6 q=15.0 size=    1280KiB time=00:00:06.70 bitrate=1563.1kbits/s speed=0.066x elapsed=0:01:41.68    \nframe=  162 fps=1.6 q=15.0 size=    1280KiB time=00:00:06.70 bitrate=1563.1kbits/s speed=0.0656x elapsed=0:01:42.19    \nframe=  162 fps=1.6 q=15.0 size=    1280KiB time=00:00:06.70 bitrate=1563.1kbits/s speed=0.0653x elapsed=0:01:42.71    \nframe=  162 fps=1.6 q=15.0 size=    1280KiB time=00:00:06.70 bitrate=1563.1kbits/s speed=0.065x elapsed=0:01:43.23    \nframe=  162 fps=1.6 q=15.0 size=    1280KiB time=00:00:06.70 bitrate=1563.1kbits/s speed=0.0647x elapsed=0:01:43.74    \nframe=  162 fps=1.6 q=15.0 size=    1280KiB time=00:00:06.70 bitrate=1563.1kbits/s speed=0.0643x elapsed=0:01:44.26    \nframe=  162 fps=1.5 q=15.0 size=    1280KiB time=00:00:06.70 bitrate=1563.1kbits/s speed=0.064x elapsed=0:01:44.77    \nframe=  162 fps=1.5 q=15.0 size=    1280KiB time=00:00:06.70 bitrate=1563.1kbits/s speed=0.0637x elapsed=0:01:45.29    \nframe=  166 fps=1.6 q=38.0 size=    1536KiB time=00:00:06.87 bitrate=1830.2kbits/s speed=0.065x elapsed=0:01:45.81    \nframe=  166 fps=1.6 q=38.0 size=    1536KiB time=00:00:06.87 bitrate=1830.2kbits/s speed=0.0647x elapsed=0:01:46.32    \nframe=  170 fps=1.6 q=33.0 size=    1536KiB time=00:00:07.04 bitrate=1786.9kbits/s speed=0.0659x elapsed=0:01:46.84    \nframe=  170 fps=1.6 q=33.0 size=    1536KiB time=00:00:07.04 bitrate=1786.9kbits/s speed=0.0656x elapsed=0:01:47.35    \nframe=  174 fps=1.6 q=36.0 size=    1536KiB time=00:00:07.20 bitrate=1745.6kbits/s speed=0.0668x elapsed=0:01:47.87    \nframe=  174 fps=1.6 q=36.0 size=    1536KiB time=00:00:07.20 bitrate=1745.6kbits/s speed=0.0665x elapsed=0:01:48.39    \nframe=  178 fps=1.6 q=23.0 size=    1536KiB time=00:00:07.37 bitrate=1706.2kbits/s speed=0.0677x elapsed=0:01:48.90    \nframe=  178 fps=1.6 q=23.0 size=    1536KiB time=00:00:07.37 bitrate=1706.2kbits/s speed=0.0674x elapsed=0:01:49.41    \nframe=  178 fps=1.6 q=23.0 size=    1536KiB time=00:00:07.37 bitrate=1706.2kbits/s speed=0.0671x elapsed=0:01:49.93    \nframe=  178 fps=1.6 q=23.0 size=    1536KiB time=00:00:07.37 bitrate=1706.2kbits/s speed=0.0668x elapsed=0:01:50.45    \nframe=  182 fps=1.6 q=34.0 size=    1536KiB time=00:00:07.54 bitrate=1668.5kbits/s speed=0.068x elapsed=0:01:50.96    \nframe=  182 fps=1.6 q=34.0 size=    1536KiB time=00:00:07.54 bitrate=1668.5kbits/s speed=0.0676x elapsed=0:01:51.48    \nframe=  186 fps=1.7 q=29.0 size=    1536KiB time=00:00:07.70 bitrate=1632.4kbits/s speed=0.0688x elapsed=0:01:52.00    \nframe=  186 fps=1.7 q=29.0 size=    1536KiB time=00:00:07.70 bitrate=1632.4kbits/s speed=0.0685x elapsed=0:01:52.51    \nframe=  186 fps=1.6 q=29.0 size=    1536KiB time=00:00:07.70 bitrate=1632.4kbits/s speed=0.0682x elapsed=0:01:53.02    \nframe=  186 fps=1.6 q=29.0 size=    1536KiB time=00:00:07.70 bitrate=1632.4kbits/s speed=0.0679x elapsed=0:01:53.53    \nframe=  188 fps=1.6 q=37.0 size=    1536KiB time=00:00:07.79 bitrate=1614.9kbits/s speed=0.0683x elapsed=0:01:54.05    \nframe=  190 fps=1.7 q=34.0 size=    1536KiB time=00:00:07.87 bitrate=1597.8kbits/s speed=0.0687x elapsed=0:01:54.57    \nframe=  190 fps=1.7 q=34.0 size=    1536KiB time=00:00:07.87 bitrate=1597.8kbits/s speed=0.0684x elapsed=0:01:55.09    \nframe=  192 fps=1.7 q=28.0 size=    1536KiB time=00:00:07.95 bitrate=1581.1kbits/s speed=0.0688x elapsed=0:01:55.60    \nframe=  194 fps=1.7 q=18.0 size=    1536KiB time=00:00:08.04 bitrate=1564.7kbits/s speed=0.0693x elapsed=0:01:56.11    \nframe=  198 fps=1.7 q=33.0 size=    1536KiB time=00:00:08.20 bitrate=1532.9kbits/s speed=0.0704x elapsed=0:01:56.64    \nframe=  200 fps=1.7 q=36.0 size=    1536KiB time=00:00:08.29 bitrate=1517.5kbits/s speed=0.0708x elapsed=0:01:57.15    \nframe=  202 fps=1.7 q=28.0 size=    1536KiB time=00:00:08.37 bitrate=1502.4kbits/s speed=0.0712x elapsed=0:01:57.66    \nframe=  202 fps=1.7 q=28.0 size=    1536KiB time=00:00:08.37 bitrate=1502.4kbits/s speed=0.0709x elapsed=0:01:58.18    \nframe=  202 fps=1.7 q=28.0 size=    1536KiB time=00:00:08.37 bitrate=1502.4kbits/s speed=0.0706x elapsed=0:01:58.69    \nframe=  206 fps=1.7 q=33.0 size=    1536KiB time=00:00:08.54 bitrate=1473.1kbits/s speed=0.0716x elapsed=0:01:59.22    \nframe=  206 fps=1.7 q=33.0 size=    1536KiB time=00:00:08.54 bitrate=1473.1kbits/s speed=0.0713x elapsed=0:01:59.72    \nframe=  206 fps=1.7 q=33.0 size=    1536KiB time=00:00:08.54 bitrate=1473.1kbits/s speed=0.071x elapsed=0:02:00.24    \nframe=  208 fps=1.7 q=36.0 size=    1536KiB time=00:00:08.62 bitrate=1458.9kbits/s speed=0.0714x elapsed=0:02:00.76    \nframe=  210 fps=1.7 q=17.0 size=    1536KiB time=00:00:08.70 bitrate=1444.9kbits/s speed=0.0718x elapsed=0:02:01.28    \nframe=  210 fps=1.7 q=17.0 size=    1536KiB time=00:00:08.70 bitrate=1444.9kbits/s speed=0.0715x elapsed=0:02:01.79    \nframe=  214 fps=1.7 q=33.0 size=    1536KiB time=00:00:08.87 bitrate=1417.8kbits/s speed=0.0726x elapsed=0:02:02.30    \nframe=  214 fps=1.7 q=33.0 size=    1536KiB time=00:00:08.87 bitrate=1417.8kbits/s speed=0.0723x elapsed=0:02:02.82    \nframe=  214 fps=1.7 q=33.0 size=    1536KiB time=00:00:08.87 bitrate=1417.8kbits/s speed=0.072x elapsed=0:02:03.34    \nframe=  216 fps=1.7 q=29.0 size=    1536KiB time=00:00:08.95 bitrate=1404.6kbits/s speed=0.0723x elapsed=0:02:03.85    \nframe=  218 fps=1.8 q=28.0 size=    1536KiB time=00:00:09.04 bitrate=1391.7kbits/s speed=0.0727x elapsed=0:02:04.36    \nframe=  218 fps=1.7 q=28.0 size=    1536KiB time=00:00:09.04 bitrate=1391.7kbits/s speed=0.0724x elapsed=0:02:04.89    \nframe=  220 fps=1.8 q=35.0 size=    1536KiB time=00:00:09.12 bitrate=1378.9kbits/s speed=0.0728x elapsed=0:02:05.40    \nframe=  224 fps=1.8 q=38.0 size=    1536KiB time=00:00:09.29 bitrate=1354.2kbits/s speed=0.0738x elapsed=0:02:05.91    \nframe=  232 fps=1.8 q=37.0 size=    1536KiB time=00:00:09.62 bitrate=1307.3kbits/s speed=0.0761x elapsed=0:02:06.43    \n[out#0/matroska @ 0000020df2529080] video:2153KiB audio:0KiB subtitle:0KiB other streams:0KiB global headers:0KiB muxing overhead: 0.080429%\nframe=  240 fps=1.9 q=32.0 Lsize=    2154KiB time=00:00:09.95 bitrate=1772.3kbits/s speed=0.0787x elapsed=0:02:06.59    \n",
  "seconds": 128.83638906478882,
  "probe_out": {}
}